<?xml version="1.0" encoding="UTF-8" standalone="no"?>
<svg width="800px" height="400px" viewBox="0 0 800 400" version="1.1" xmlns="http://www.w3.org/2000/svg" xmlns:xlink="http://www.w3.org/1999/xlink">
    <title>Energy Anomaly Detection Background</title>
    <defs>
        <linearGradient x1="0%" y1="0%" x2="100%" y2="100%" id="linearGradient-1">
            <stop stop-color="#1E3A8A" offset="0%"></stop>
            <stop stop-color="#1E293B" offset="100%"></stop>
        </linearGradient>
    </defs>
    <g stroke="none" stroke-width="1" fill="none" fill-rule="evenodd">
        <rect fill="url(#linearGradient-1)" x="0" y="0" width="800" height="400"></rect>
        
        <!-- Power Icons -->
        <g transform="translate(100, 100)" fill="#FFFFFF" opacity="0.1">
            <path d="M50,0 L30,40 L50,40 L20,100 L0,60 L20,60 Z" />
        </g>
        
        <g transform="translate(600, 150)" fill="#FFFFFF" opacity="0.1">
            <path d="M50,0 L30,40 L50,40 L20,100 L0,60 L20,60 Z" />
        </g>
        
        <g transform="translate(300, 250)" fill="#FFFFFF" opacity="0.1">
            <path d="M50,0 L30,40 L50,40 L20,100 L0,60 L20,60 Z" />
        </g>
        
        <!-- Wave Pattern -->
        <path d="M0,300 C100,280 200,320 300,300 C400,280 500,320 600,300 C700,280 800,320 900,300 L900,400 L0,400 Z" fill="#4CAF50" opacity="0.1"></path>
        
        <!-- Circle Elements -->
        <circle cx="200" cy="100" r="20" fill="#FFFFFF" opacity="0.05"></circle>
        <circle cx="400" cy="150" r="30" fill="#FFFFFF" opacity="0.05"></circle>
        <circle cx="600" cy="200" r="25" fill="#FFFFFF" opacity="0.05"></circle>
        
        <!-- Grid Lines -->
        <g stroke="#FFFFFF" stroke-width="0.5" opacity="0.1">
            <line x1="0" y1="50" x2="800" y2="50"></line>
            <line x1="0" y1="100" x2="800" y2="100"></line>
            <line x1="0" y1="150" x2="800" y2="150"></line>
            <line x1="0" y1="200" x2="800" y2="200"></line>
            <line x1="0" y1="250" x2="800" y2="250"></line>
            <line x1="0" y1="300" x2="800" y2="300"></line>
            <line x1="0" y1="350" x2="800" y2="350"></line>
            
            <line x1="100" y1="0" x2="100" y2="400"></line>
            <line x1="200" y1="0" x2="200" y2="400"></line>
            <line x1="300" y1="0" x2="300" y2="400"></line>
            <line x1="400" y1="0" x2="400" y2="400"></line>
            <line x1="500" y1="0" x2="500" y2="400"></line>
            <line x1="600" y1="0" x2="600" y2="400"></line>
            <line x1="700" y1="0" x2="700" y2="400"></line>
        </g>
    </g>
</svg>