<svg width="800" height="600" xmlns="http://www.w3.org/2000/svg">
  <defs>
    <linearGradient id="grid-gradient" x1="0%" y1="0%" x2="100%" y2="100%">
      <stop offset="0%" stop-color="#121212" stop-opacity="1"/>
      <stop offset="100%" stop-color="#1E1E1E" stop-opacity="1"/>
    </linearGradient>
    
    <pattern id="grid" width="50" height="50" patternUnits="userSpaceOnUse">
      <rect width="50" height="50" fill="url(#grid-gradient)"/>
      <path d="M 50 0 L 0 0 0 50" fill="none" stroke="#2A2A2A" stroke-width="1"/>
    </pattern>
    
    <filter id="glow" x="-50%" y="-50%" width="200%" height="200%">
      <feGaussianBlur stdDeviation="3" result="blur"/>
      <feComposite in="SourceGraphic" in2="blur" operator="over"/>
    </filter>
    
    <linearGradient id="bolt-gradient" x1="0%" y1="0%" x2="100%" y2="100%">
      <stop offset="0%" stop-color="#00A86B" stop-opacity="1"/>
      <stop offset="100%" stop-color="#008C59" stop-opacity="1"/>
    </linearGradient>
  </defs>
  
  <!-- Background with grid pattern -->
  <rect width="100%" height="100%" fill="url(#grid)"/>
  
  <!-- Energy-themed decorative elements -->
  <!-- Power lines -->
  <path d="M 0 150 C 200 100, 400 200, 800 150" stroke="#333333" stroke-width="2" fill="none"/>
  <path d="M 0 160 C 200 110, 400 210, 800 160" stroke="#333333" stroke-width="2" fill="none"/>
  <path d="M 0 170 C 200 120, 400 220, 800 170" stroke="#333333" stroke-width="2" fill="none"/>
  
  <!-- Energy waves -->
  <path d="M 0 350 C 100 330, 150 370, 250 350 C 350 330, 400 370, 500 350 C 600 330, 650 370, 750 350 C 850 330, 900 370, 1000 350" stroke="#00A86B" stroke-width="2" fill="none" opacity="0.3"/>
  <path d="M 0 360 C 100 340, 150 380, 250 360 C 350 340, 400 380, 500 360 C 600 340, 650 380, 750 360 C 850 340, 900 380, 1000 360" stroke="#00A86B" stroke-width="2" fill="none" opacity="0.3"/>
  <path d="M 0 370 C 100 350, 150 390, 250 370 C 350 350, 400 390, 500 370 C 600 350, 650 390, 750 370 C 850 350, 900 390, 1000 370" stroke="#00A86B" stroke-width="2" fill="none" opacity="0.3"/>
  
  <!-- Energy bolts -->
  <path d="M 150 100 L 120 150 L 140 150 L 110 200 L 160 140 L 140 140 Z" fill="url(#bolt-gradient)" filter="url(#glow)" opacity="0.7" transform="rotate(15, 150, 150)"/>
  <path d="M 650 400 L 620 450 L 640 450 L 610 500 L 660 440 L 640 440 Z" fill="url(#bolt-gradient)" filter="url(#glow)" opacity="0.7" transform="rotate(-10, 650, 450)"/>
  
  <!-- Energy nodes -->
  <circle cx="100" cy="250" r="5" fill="#00A86B" filter="url(#glow)" opacity="0.8"/>
  <circle cx="300" cy="200" r="6" fill="#00A86B" filter="url(#glow)" opacity="0.8"/>
  <circle cx="500" cy="280" r="7" fill="#00A86B" filter="url(#glow)" opacity="0.8"/>
  <circle cx="700" cy="220" r="5" fill="#00A86B" filter="url(#glow)" opacity="0.8"/>
  
  <!-- Light particles -->
  <circle cx="150" cy="150" r="1" fill="#FFFFFF" opacity="0.5"/>
  <circle cx="300" cy="300" r="1" fill="#FFFFFF" opacity="0.5"/>
  <circle cx="450" cy="150" r="1" fill="#FFFFFF" opacity="0.5"/>
  <circle cx="600" cy="300" r="1" fill="#FFFFFF" opacity="0.5"/>
  <circle cx="750" cy="150" r="1" fill="#FFFFFF" opacity="0.5"/>
  <circle cx="200" cy="400" r="1" fill="#FFFFFF" opacity="0.5"/>
  <circle cx="350" cy="450" r="1" fill="#FFFFFF" opacity="0.5"/>
  <circle cx="500" cy="400" r="1" fill="#FFFFFF" opacity="0.5"/>
  <circle cx="650" cy="450" r="1" fill="#FFFFFF" opacity="0.5"/>
  <circle cx="700" cy="100" r="1" fill="#FFFFFF" opacity="0.5"/>
</svg>
