<svg width="200" height="200" xmlns="http://www.w3.org/2000/svg">
  <defs>
    <linearGradient id="bolt-gradient" x1="0%" y1="0%" x2="100%" y2="100%">
      <stop offset="0%" stop-color="#00A86B" stop-opacity="1"/>
      <stop offset="100%" stop-color="#008C59" stop-opacity="1"/>
    </linearGradient>
    
    <filter id="glow" x="-20%" y="-20%" width="140%" height="140%">
      <feGaussianBlur stdDeviation="5" result="blur"/>
      <feComposite in="SourceGraphic" in2="blur" operator="over"/>
    </filter>
    
    <linearGradient id="circle-gradient" x1="0%" y1="0%" x2="100%" y2="100%">
      <stop offset="0%" stop-color="#1E1E1E" stop-opacity="1"/>
      <stop offset="100%" stop-color="#121212" stop-opacity="1"/>
    </linearGradient>
  </defs>
  
  <!-- Background circle -->
  <circle cx="100" cy="100" r="95" fill="url(#circle-gradient)" stroke="#00A86B" stroke-width="2"/>
  
  <!-- Lightning bolt -->
  <path d="M 100 40 L 60 100 L 90 100 L 50 160 L 140 80 L 100 80 Z" fill="url(#bolt-gradient)" filter="url(#glow)"/>
  
  <!-- Energy waves -->
  <path d="M 60 90 C 70 85, 80 95, 90 90 C 100 85, 110 95, 120 90 C 130 85, 140 95, 150 90" stroke="#00A86B" stroke-width="2" fill="none" opacity="0.7"/>
  <path d="M 50 130 C 60 125, 70 135, 80 130 C 90 125, 100 135, 110 130 C 120 125, 130 135, 140 130" stroke="#00A86B" stroke-width="2" fill="none" opacity="0.7"/>
  
  <!-- Data points -->
  <circle cx="70" cy="110" r="3" fill="#FFFFFF" opacity="0.8"/>
  <circle cx="90" cy="120" r="3" fill="#FFFFFF" opacity="0.8"/>
  <circle cx="110" cy="100" r="3" fill="#FFFFFF" opacity="0.8"/>
  <circle cx="130" cy="115" r="3" fill="#FFFFFF" opacity="0.8"/>
  <circle cx="80" cy="95" r="3" fill="#FFFFFF" opacity="0.8"/>
  <circle cx="100" cy="105" r="3" fill="#FFFFFF" opacity="0.8"/>
  <circle cx="120" cy="90" r="3" fill="#FFFFFF" opacity="0.8"/>
</svg>
